<svg xmlns="http://www.w3.org/2000/svg" xmlns:xlink="http://www.w3.org/1999/xlink" id="Layer_1" x="0px" y="0px" viewBox="0 0 787.5 601.9" style="enable-background:new 0 0 787.5 601.9;" xml:space="preserve"><style type="text/css">	.st0{fill:#FFFFFF;}</style><path class="st0" d="M267.8,151.5c0.2,6.4,11,14.9,17.6,19.4c0,0,0.1,0.1,0.2,0.1c0.8,0.5,1.8,0.8,2.8,0.5c1-0.2,1.9-0.8,2.5-1.7 c5.8-8.7,24.9-22.5,59.6-33.9c1.2,3.3,3.5,6.6,5.2,8.7c-0.1,0.1,0,0.1,0,0.1c-0.7,10,5.4,23.8,14,29.3c0,0,0.1,0.1,0.2,0.1 c9.8,5.9,37.2,8.9,40.4,9.2c2,0.2,3.8-1,4.3-2.9c0.5-1.9-0.4-3.8-2.2-4.7c-1.9-0.8-3.6-3.7-5.6-7c-0.6-1.1-1.4-2.3-2.1-3.5l0.1,0 c2.9,3.6,6.6,6.9,10.6,9.4c3.7,2.4,7.9,4,11.7,4.2c11.3,0.9,37.4-9.3,40.3-10.5c1.8-0.7,2.8-2.6,2.4-4.5s-2.2-3.2-4.1-3 c-1.2,0.1-2.6-0.4-4.2-1.3c5.9-2.8,13.4-7,16-8.5c16.2-9.2,16.4-10.3,16.7-12.1c0.3-1.4-0.3-2.9-1.5-3.8c-0.5-0.4-1-0.6-1.5-0.8 c-1.4-0.9-3.7-1.5-7.3-2.1c1.5-1,2.7-1.9,3.5-2.4c15.2-10.8,15.2-11.8,15.4-13.7c0.2-1.4-0.6-2.9-1.8-3.6c-0.6-0.4-1.1-0.5-1.6-0.6 c-0.9-0.4-2-0.7-3.3-1c10.6-10.3,17-21.3,16.6-25.3c-0.2-1.8-1.3-3.2-2.9-3.8l0,0c-1.4-1.1-3.7-2-7.4-2.9c2.2-2.2,4.3-4.3,6-6.2 c4.4-4.8,11.7-13.4,11.4-17c-0.2-1.6-1.2-2.9-2.7-3.5c-0.2-0.1-0.3-0.2-0.5-0.2c-4.6-4.1-16.1-6.5-23.2-7.6c-1.3-0.2-3-0.4-4.9-0.6 c0.1,0,0.2-0.2,0.3-0.3c0.5-0.4,0.8-0.8,1.1-1.3c0.5-0.8,1.5-3-0.3-5.8c-3.3-5.3-17.5-13.1-36.5-14.9c3.7-3.3,5.7-5.3,6.5-7.2 c0.3-0.4,0.6-0.9,0.9-1.4c0.4-1.5,0.1-3-0.9-4.1c-1.3-1.5-2-2.2-20.6-1.2c-4.1,0.2-17.9,1.1-23.7,2.5c-6.5,1.6-27,11.3-37.8,20.9 c0.4-1.2,0.8-2.4,1.1-3.6c1.2-3.7,2.1-6.9,3.8-8.2c1.5-1.2,2-3.3,1-5c-1-1.7-3-2.5-4.8-1.9c-2.9,1.1-29.3,10.6-37.1,18.8 c-6.1,6.4-8.9,18.6-7.5,28c-4.6,1.5-7.6,3.7-9.3,6.7c-5.1,9.2-9.7,19.9-1.1,31.2c2.3,3,4.9,6.1,8.1,8c1.5,0.9,3.2,1.5,5,1.8 c-17.2,7.8-53.5,25.5-66.9,40.1C268.5,147.9,267.7,149.5,267.8,151.5z M362.2,41.8c-2.3,2.3-4.8,5.3-7.5,8.5 c-1.5,1.9-3.4,4.2-5.5,6.4c-0.4,0.1-0.8,0.1-1.2,0.1c-2.3,0.1-4.4,0.3-6.4,0.6c-0.8-6.6,1-16.2,5.5-20.8c3.9-4,15.3-9.3,24.4-13.1 c-0.2,0.5-0.3,1.1-0.5,1.5C369.5,30.4,367.7,36.5,362.2,41.8z M357.4,64.6c-1.1,2.6-2,5.6-3,9c-9,1.9-11.8,4.8-13.1,7.2 c-3.2,5.6-4.2,11.9-3.4,18c-2-0.3-4.5-2.5-7.8-6.8c-5.2-6.9-3.5-13,1.7-22.6C333.9,65.5,346.5,64.1,357.4,64.6z M364.7,53.2 c14.5-11.7,23.7-19.2,45.1-23c-0.3,0.9-0.5,1.8-0.7,2.8c-3,11.4-7,26.9-16.7,39.5c-2.1-0.3-11.6-0.8-21.9-0.5 c-2.7,0.1-5.2,0.3-7.4,0.5c1.2-3.7,2.5-7.2,3.8-8.2c1.3-1,1.8-2.7,1.4-4.2c-0.5-1.5-1.8-2.7-3.4-2.9c-0.2,0-1.6-0.2-3.9-0.3 c0.9-1.1,2-2.1,3.1-3.1L364.7,53.2z M448.3,14.7c-1.8,1.7-4,3.6-6,5.3c-6.5,5.6-14.5,12.5-20.7,19.3c-2.1,2.3-4.7,4-7.5,5.3 c1.1-3.5,1.9-6.8,2.7-9.8c0.8-3.3,1.5-6.1,2.3-8.3c0.4-1.2,0.1-2.7-0.7-3.7c-0.9-1-2.2-1.5-3.5-1.3c-3.9,0.5-7.3,1.2-10.6,1.8 c5.7-2.8,10.6-4.9,13.2-5.6C422.7,16.2,438.7,15.2,448.3,14.7z M479.8,40.9c-0.7,0.5-1.5,1.2-2.2,1.8c-1.9-0.1-3.9,0-5.8,0 c-8.7-3.9-21.1-7-35.5-6.6c2.7-2.5,5.5-5,8.2-7.3c17.4-0.1,30.7,5.7,36,9.3c-0.5,0.7-0.7,1.6-0.7,2.5 C479.7,40.7,479.7,40.7,479.8,40.9z M473.8,56.1c-1,0.9-2.3,1.9-3.6,2.9c-3.7,3-8.8,7-13.8,11.5c-10.8-6.4-32.8-11.9-47.9-10.6 c0.8-1.8,1.5-3.7,2.2-5.5c6.6-1.7,12.3-4.9,16.5-9.4l0.1-0.1c1-0.2,2.1-0.3,3.2-0.4l0,0c21.3-2.4,37.8,4.6,43.9,8.8 c-0.5,0.7-0.7,1.6-0.7,2.5C473.9,55.8,473.8,55.9,473.8,56.1z M404.3,68.5c14.6-4.2,44,5.1,50.1,9.9c-0.4,1.2-0.2,2.4,0.5,3.4 c-4,7.3-15.5,23.5-31.3,32.7c-4.7,2.7-9,4.4-12.8,5.3c-5.1-1.9-10.6-3.3-16.4-3.9c-1.1-1-2-2.1-2.9-3.5c2.7-6.7,2.6-14.8,2.5-21.7 c-0.1-2.6-0.1-6,0.2-8.5C398.2,78,401.5,73.3,404.3,68.5z M475,65.1c0.3-0.3,0.6-0.4,0.9-0.7c6.1,1.1,11,2.6,13.4,3.9 c0,0.4,0,0.9,0.1,1.4c-1.4,2-3.4,4.6-6,7.6c-4.4-1-10.6-1.9-19.3-3.1C468.1,70.7,471.9,67.7,475,65.1z M463.5,82 c8,1.2,17,2.5,21.5,3.7c0,0.8,0.3,1.6,0.7,2.4l0.1,0.1c-2.8,4.9-9,13.2-18,20.7c-4.4-0.3-8.9-0.7-12.9-1.3 c-3.3-0.5-6.6-0.3-10.1,0.2c3.8-3.8,6.9-7.5,9.4-10.6C455,96.1,461.2,87.9,463.5,82z M510,57.9c-2.5,3.4-6.9,8.9-12.8,14.6 c1.4-2.1,2.3-4.1,2.1-5.5c-0.2-1.6-1.2-2.9-2.7-3.5c-0.2-0.1-0.3-0.2-0.5-0.2c-2.7-2.4-7.8-4.2-12.9-5.5c0.3-0.3,0.6-0.6,0.8-0.9 c0.5-0.8,1.5-3-0.3-5.8c-0.1-0.2-0.2-0.2-0.3-0.4c11.4,0.9,22.4,3.6,26.5,5.7C509.8,57,509.8,57.5,510,57.9z M485.1,109.7 c-1,0-2-0.1-3-0.1s-2.1,0-3.2-0.1c9.8-9.6,15.9-19.7,16.4-24.3c2.8,0.4,5.2,0.9,6.9,1.4c0,0.8,0.3,1.6,0.8,2.4l0,0 C500.2,93.9,494.1,102.2,485.1,109.7z M489.7,117.7c-4.9,3.7-11.8,8.6-17.7,12.4c-7.9-1.1-17.2-2.4-25-4.4c-6.4-1.7-13.6-1-20.6,1.7 c-0.2-0.1-0.3-0.2-0.4-0.3c6.6-6.8,17.1-13.4,27.5-11.8c9.1,1.4,19.8,1.7,28.3,2C484.5,117.5,487.4,117.6,489.7,117.7z M453.6,154.1 L453.6,154.1c-2.3,0.8-7.2,1.7-13.1,2.4c3.2-1.6,6.5-3.4,10.1-5.6c1.1-0.7,1.9-2,1.9-3.3s-0.6-2.6-1.8-3.3c-2-1.3-4.3-3.1-7-5 c-2.4-1.8-5.2-3.9-8.2-6c3.3-0.7,6.6-0.6,9.8,0.2c8.8,2.2,19.4,3.7,27.8,4.9c2.7,0.3,5.5,0.7,7.9,1.1 C472.9,144.4,458.9,152.2,453.6,154.1z M415.3,164.9c11.7,1.2,27.6-0.5,36.3-2.2c0.5,0.3,1.1,0.7,1.6,1c0.5,0.3,0.9,0.6,1.4,0.9 c-9.3,3.2-21.3,6.7-26.9,6.3C423.7,170.5,419.1,168,415.3,164.9z M364.9,154.4c2.1,1.7,4.4,3.5,6.9,4.9c5.8,3.5,12.1,5.8,18.9,5.9 l0.8,0c1.1,0,2.3,0,3.4,0c2,2.5,3.6,5,5,7.5c0.3,0.5,0.6,0.9,0.9,1.4c-9.6-1.5-22-3.9-26.7-6.8C370,164.9,366.9,159.7,364.9,154.4z  M374,124.9c1.7-0.2,3.3-0.4,4.6-0.6c25.6-4.6,46.4,10.9,60.3,21.2c0.8,0.6,1.6,1.2,2.3,1.7c-19.1,10.4-30.9,10.3-49.6,10.2l-0.8,0 c-17.9-0.2-33.2-21.7-33.5-25.9C358.8,126.6,368,125.6,374,124.9z M350.8,109.9c-6.1-8.1-7.1-17.3-2.7-25.4c2-3.5,19.2-5.5,38.3-4.6 c-0.6,3.1-0.5,6.9-0.5,11c0.1,8.5,0.2,18.2-4.8,23.2c-2.3,2.3-7.3,3.4-13,3C360.8,116.6,353.7,113.6,350.8,109.9z M275.9,151.9 c10.9-11.8,42-28.1,67.1-39.4c0.5,0.7,0.9,1.5,1.5,2.2c0.4,0.5,0.8,0.9,1.2,1.4l4.9,10.7c-0.2,0.3-0.3,0.6-0.4,0.9 c-14.5,4.7-49.1,17.3-63.5,34.5C281.6,158.2,277,154,275.9,151.9z"></path><g>	<path class="st0" d="M86.2,357.4h1.6c0.8,0,1.4,0.3,2,0.8c0.7,0.6,1.2,1.4,1.7,2.2c0.5,0.9,0.9,1.9,1.1,2.9s0.3,1.9,0.3,2.7v41.9  c-3.1,1.7-6.3,2.9-9.4,3.4c-3.3,0.5-6.1,0.8-8.3,0.8c-8.1,0-15.6-1.6-22.3-4.9c-6.7-3.2-12.4-7.5-17.1-12.8  c-4.7-5.2-8.4-11.3-11-18s-3.9-13.5-3.9-20.3c0-6.1,1-12.4,3-18.6s5.1-11.8,9.2-16.8c4.1-4.9,9.5-9,15.9-12.1  c6.5-3.1,14.2-4.7,23.1-4.7c2.6,0,5.4,0.2,8.4,0.6s5.8,1.2,8.5,2.4c2.6,1.2,5,2.8,7,5s3.4,5.1,4,8.6l0.1,0.6h3.2v-20.6h-2.4  c-0.8,0-1.7-0.1-2.8-0.4c-1.1-0.3-2.5-0.6-4.1-1c-2.9-0.6-6.1-1.3-9.6-2c-3.6-0.7-7.6-1.1-11.8-1.1c-11.2,0-21,1.8-29.2,5.4  s-15,8.3-20.4,14.1c-5.4,5.8-9.4,12.5-12,19.9s-3.9,14.9-3.9,22.4s1.3,15,3.9,22.4s6.6,14.1,11.9,20s12.1,10.7,20.2,14.3  c8.1,3.6,17.7,5.5,28.6,5.5c2.6,0,5.6-0.1,8.7-0.4c3.1-0.2,6.2-0.6,9.2-1s6-0.9,8.7-1.5c2.8-0.6,5.3-1.3,7.5-2.2l0.5-0.2V366  c0-0.8,0.1-1.7,0.4-2.7s0.7-2,1.1-2.9s1-1.6,1.6-2.2c0.6-0.5,1.2-0.8,2-0.8h1.7v-3.3H86.2V357.4z"></path>	<path class="st0" d="M251.5,357.7c0-8.1-1.4-16-4.3-23.4c-2.8-7.4-7-14.1-12.2-19.7c-5.3-5.6-11.7-10.2-19.2-13.5s-16.1-5-25.5-5  c-9.9,0-18.9,1.8-26.6,5.5c-7.7,3.6-14.4,8.5-19.8,14.4c-5.4,5.9-9.5,12.8-12.3,20.3s-4.2,15.3-4.2,23c0,7.9,1.4,15.5,4.2,22.8  s6.8,13.8,11.9,19.3c5.1,5.6,11.5,10.1,19,13.5c7.4,3.4,15.9,5.1,25.2,5.1c8.7,0,17-1.6,24.7-4.6c7.7-3.1,14.5-7.4,20.3-12.8  s10.4-12.1,13.8-19.7C249.8,375.2,251.5,366.7,251.5,357.7z M188,303.9c7.5,0,14.4,1.7,20.5,5c6.1,3.4,11.4,7.8,15.7,13.1  c4.4,5.4,7.8,11.4,10.2,18s3.6,13.2,3.6,19.7c0,5.9-1,11.9-2.9,17.9s-5,11.6-9,16.6s-9.1,9.2-15,12.4c-5.9,3.2-12.9,5-20.8,5.4  c-7,0-13.6-1.7-19.5-4.9c-6-3.3-11.2-7.7-15.6-13c-4.4-5.3-7.9-11.3-10.3-17.9c-2.5-6.5-3.7-13.1-3.7-19.6c0-6,1.1-12.2,3.2-18.5  c2.1-6.2,5.3-12,9.3-17.1c4.1-5.1,9.1-9.3,14.8-12.5C174.1,305.5,180.7,303.9,188,303.9z"></path>	<path class="st0" d="M271.1,302c0.7,0.6,1.2,1.4,1.7,2.2c0.5,0.9,0.9,1.9,1.1,2.9s0.3,1.9,0.3,2.7v71.1c0,7.6,1,14,2.9,19.1  c2,5.1,4.7,9.1,8.1,12.1c3.4,2.9,7.6,5,12.3,6.2c4.7,1.1,9.8,1.7,15.2,1.7c5.1,0,9.9-0.6,14.5-1.6c4.6-1.1,8.7-3.2,12.1-6.1  c3.4-3,6.2-7,8.1-12.1c1.9-5,2.9-11.6,2.9-19.4v-70.9c0-0.8,0.1-1.7,0.3-2.7c0.2-1,0.6-2,1.1-2.9s1.1-1.7,1.7-2.3  c0.5-0.5,1.1-0.8,1.9-0.8h1.6v-3.3H336v3.3h1.6c0.6,0,1.2,0.3,1.8,0.8c0.7,0.6,1.2,1.4,1.7,2.2c0.5,0.9,0.9,1.9,1.1,2.9  s0.3,1.9,0.3,2.7v71.5c0,3.7-0.3,7.4-0.9,11.2c-0.6,3.7-1.8,7.1-3.7,10.1c-1.8,2.9-4.5,5.4-8,7.2c-3.5,1.9-8.2,2.8-14,2.8  c-5.3,0-9.8-0.8-13.4-2.4s-6.5-3.8-8.7-6.5c-2.2-2.8-3.8-6.1-4.7-10c-0.9-3.9-1.4-8.2-1.4-12.8v-71.1c0-0.8,0.1-1.7,0.3-2.7  c0.2-1,0.6-2,1.1-2.9s1.1-1.6,1.7-2.2c0.6-0.5,1.2-0.8,2-0.8h1.7v-3.3h-27.1v3.3h1.6C269.9,301.2,270.5,301.4,271.1,302z"></path>	<path class="st0" d="M453.9,418.2h8.5v-3.3h-0.8c-1.2,0-2.4-0.3-3.5-0.9c-1.2-0.6-2.3-1.5-3.4-2.5c-1.1-1.1-2.2-2.2-3.2-3.5  s-1.9-2.6-2.8-3.7c-3.1-4.9-6.3-9.8-9.6-14.3c-3.2-4.6-6.4-9.3-9.5-14.1L417.2,357c3.5-0.7,6.8-1.8,10-3.2c3.5-1.5,6.6-3.6,9.1-6.1  c2.6-2.5,4.7-5.6,6.2-9.1s2.3-7.6,2.3-12.3c0-9.3-3.4-16.5-10.1-21.3c-6.6-4.8-16.1-7.2-28.2-7.2h-32.1v3.3h1.7  c0.6,0,1.2,0.3,1.8,0.8c0.7,0.6,1.2,1.4,1.7,2.2c0.5,0.9,0.9,1.9,1.1,2.9s0.3,1.9,0.3,2.7v95.9c0,0.9-0.1,1.9-0.3,3  c-0.2,1.1-0.6,2.1-1.1,2.9c-0.5,0.9-1.1,1.7-1.8,2.4c-0.6,0.6-1.2,0.9-1.8,0.9h-1.7v3.3h26.9v-3.3h-1.6c-0.7,0-1.4-0.3-1.9-0.8  c-0.6-0.7-1.2-1.5-1.7-2.4s-0.9-1.9-1.1-2.9c-0.2-1.1-0.3-2.1-0.3-3v-48.4c1.1,0.2,2.2,0.3,3.4,0.5c1.4,0.2,2.7,0.3,3.9,0.4  c5.2,7.8,10.5,15.8,15.7,23.8s10.7,16.1,16.1,24.1c2.1,3.2,4.7,6,7.8,8.4C444.9,417,449,418.2,453.9,418.2z M394.7,305.5h2  c5.1,0,9.8,0.3,14.1,0.9c4.2,0.6,7.9,1.7,10.8,3.3c2.9,1.6,5.3,3.8,6.9,6.6c1.7,2.8,2.5,6.4,2.5,10.8s-0.8,8.1-2.3,11  c-1.6,2.9-3.5,5.3-5.9,7c-2.4,1.8-5,3.1-7.7,3.8c-2.7,0.8-5.4,1.1-7.8,1.1c-3.2,0-5.8,0-7.8-0.1c-2.1-0.1-3.6-0.1-4.6-0.3h-0.2  V305.5z"></path>	<path class="st0" d="M494.8,414.9h-1.6c-0.8,0-1.4-0.3-2-0.9c-0.7-0.7-1.3-1.5-1.8-2.4s-0.9-1.9-1.1-2.9c-0.2-1.1-0.3-2.1-0.3-3  v-85.4l43.4,101L577,314.7v91c0,0.9-0.1,1.9-0.3,3s-0.6,2.1-1.1,2.9c-0.5,0.9-1.1,1.7-1.8,2.4c-0.6,0.6-1.2,0.9-1.8,0.9h-1.7v3.3  h27.1v-3.3h-1.7c-0.8,0-1.4-0.3-2-0.9c-0.7-0.7-1.3-1.5-1.8-2.4s-0.9-1.9-1.1-2.9c-0.2-1.1-0.3-2.1-0.3-3v-95.9  c0-0.8,0.1-1.7,0.3-2.7s0.6-2,1.1-2.9s1.1-1.6,1.7-2.2c0.6-0.5,1.2-0.8,2-0.8h1.7v-3.3h-21.6l-41.3,97.3l-41.1-96.8l-0.2-0.5h-19.6  v3.3h1.7c0.6,0,1.2,0.3,1.8,0.8c0.6,0.6,1.2,1.3,1.6,2.2c0.5,0.9,0.8,1.9,1,2.9s0.3,1.9,0.3,2.7v95.9c0,0.9-0.1,1.9-0.3,3  c-0.2,1.1-0.6,2.1-1,3s-1,1.7-1.7,2.3c-0.6,0.6-1.2,0.9-1.8,0.9h-1.7v3.3h21.1v-3.3H494.8z"></path>	<path class="st0" d="M687.2,396.4c0,1.1-0.3,2.5-0.8,4.2c-0.5,1.6-1.3,3.2-2.4,4.6c-1.1,1.4-2.4,2.7-4,3.7s-3.4,1.5-5.5,1.5h-38.7  v-53h29.1c2.7,0,4.9,0.7,6.5,2.2c1.6,1.4,2.4,3.1,2.4,5v0.8h3.3v-24h-3.3v0.8c0,2.1-0.8,3.8-2.5,5.4s-3.8,2.3-6.4,2.3h-29.1v-44  h35.4c3.8,0,6.7,1,8.4,2.9c1.8,2,2.8,4.3,3,6.8l0.1,0.7h3.2v-18.2h-70.8v3.3h1.6c0.8,0,1.4,0.3,2,0.8c0.7,0.6,1.2,1.4,1.7,2.2  c0.5,0.9,0.9,1.9,1.2,2.9s0.4,1.9,0.4,2.7v96.3c0,0.9-0.1,1.8-0.4,2.9c-0.3,1-0.7,2-1.2,2.9s-1.1,1.6-1.7,2.2  c-0.6,0.5-1.2,0.8-2,0.8h-1.6v3.3h75.3v-22.6h-3.3L687.2,396.4L687.2,396.4z"></path>	<path class="st0" d="M697.8,297.9V319h3.3v-0.8c0-1.4,0.2-2.8,0.7-4.2c0.5-1.4,1.1-2.7,2-3.9c0.9-1.2,2-2.2,3.4-3  c1.3-0.8,2.9-1.2,4.7-1.2H732v99.7c0,0.9-0.1,1.9-0.3,3s-0.6,2.1-1.1,2.9c-0.5,0.9-1.1,1.7-1.8,2.4c-0.6,0.6-1.2,0.9-2,0.9h-1.6  v3.3h27.1v-3.3h-1.7c-0.7,0-1.4-0.3-1.9-0.8c-0.6-0.7-1.2-1.5-1.7-2.4s-0.9-1.9-1.1-2.9c-0.2-1.1-0.3-2.1-0.3-3V306h20.5  c1.8,0,3.3,0.4,4.7,1.2c1.3,0.8,2.5,1.8,3.4,3s1.6,2.5,2,3.9c0.5,1.4,0.7,2.8,0.7,4.2v0.8h3.3V298h-82.4V297.9z"></path>	<path class="st0" d="M217,541.2c-3.4-2.7-7.2-4.9-11.5-6.8c-4.2-1.8-8.4-3.5-12.5-5.1c-3.6-1.3-7-2.7-10.3-4.1  c-3.3-1.4-6.2-3-8.6-4.8c-2.4-1.7-4.4-3.8-5.8-6.1c-1.4-2.3-2.1-5-2.1-8.2c0-2,0.3-4.3,1-6.9c0.6-2.6,1.8-5,3.6-7.3  c1.7-2.2,4.1-4.2,7.1-5.7c2.9-1.6,6.8-2.3,11.5-2.3c8.2,0,14.6,1.1,19.2,3.3c4.5,2.1,6.7,6,7,12v0.7h3.3v-20h-0.8  c-1.8,0-3.6-0.1-5.5-0.4s-3.9-0.7-5.9-1.2c-2.5-0.6-5.2-1.1-8-1.5s-5.8-0.6-8.9-0.6c-4.6,0-9.2,0.6-13.6,1.9  c-4.4,1.3-8.5,3.2-11.9,5.8c-3.5,2.6-6.3,5.9-8.4,9.9c-2.1,4-3.1,8.7-3.1,14.1c0,5.1,1,9.5,3,13.1c2,3.5,4.6,6.5,7.8,9  s6.8,4.6,10.8,6.3s8,3.3,12.1,4.9c3.5,1.4,7,2.8,10.6,4.3c3.4,1.4,6.5,3.1,9.1,5.1s4.8,4.3,6.4,6.9c1.6,2.6,2.4,5.8,2.4,9.6  c0,3-0.6,6-1.7,8.9c-1.1,2.9-2.8,5.6-5.2,7.9c-2.3,2.4-5.3,4.3-9,5.8c-3.6,1.5-8,2.2-13.1,2.2c-1.4,0-3.7-0.2-6.8-0.6  c-3-0.4-6.1-1.3-9.2-2.7c-3-1.4-5.7-3.4-8-6c-2.2-2.5-3.3-6-3.3-10.4v-0.8h-3.3v22h0.8c1.5,0,3,0.2,4.5,0.6  c1.6,0.4,3.3,0.9,5.2,1.5c2.9,0.8,6.1,1.8,9.6,2.7c3.5,1,7.8,1.5,12.7,1.5c4.7,0,9.6-0.6,14.4-1.8c4.8-1.2,9.2-3.2,13.1-5.9  c3.9-2.7,7.1-6.3,9.5-10.6c2.5-4.4,3.7-9.7,3.7-15.8c0-5.6-1.1-10.5-3.3-14.4C223.1,547.3,220.3,543.9,217,541.2z"></path>	<path class="st0" d="M316.1,576.4c0,1.1-0.3,2.5-0.8,4.2c-0.5,1.6-1.3,3.2-2.4,4.6c-1.1,1.4-2.4,2.7-4,3.7s-3.4,1.5-5.5,1.5h-38.7  v-53h29.1c2.7,0,4.9,0.7,6.5,2.2c1.6,1.4,2.4,3.1,2.4,5v0.8h3.3v-24h-3.3v0.8c0,2.1-0.8,3.8-2.5,5.4c-1.7,1.6-3.8,2.3-6.4,2.3  h-29.1v-44h35.4c3.8,0,6.7,1,8.4,2.9c1.8,2,2.8,4.3,3,6.8l0.1,0.7h3.2v-18.2H244v3.3h1.6c0.8,0,1.4,0.3,2,0.8  c0.7,0.6,1.2,1.4,1.7,2.2c0.5,0.9,0.9,1.9,1.2,2.9s0.4,1.9,0.4,2.7v96.3c0,0.9-0.1,1.8-0.4,2.9c-0.3,1-0.7,2-1.2,2.9  s-1.1,1.6-1.7,2.2c-0.6,0.5-1.2,0.8-2,0.8H244v3.3h75.3v-22.6H316L316.1,576.4L316.1,576.4z"></path>	<path class="st0" d="M407.6,481.2h0.8c0.8,0,1.8,0.3,2.8,0.9c0.9,0.5,1.3,1.3,1.3,2.5c0,0.1,0,0.3-0.2,0.9c-0.1,0.5-0.2,0.8-0.3,1  l-31,84.3l-31-83.4c-0.3-1-0.5-1.8-0.5-2.5c0-1.2,0.4-2.1,1.2-2.7c0.9-0.7,1.8-1,2.7-1h0.8v-3.3h-27.1v3.3h0.7  c1.9,0.1,3.4,0.8,4.7,2c1.3,1.2,2.3,2.7,3,4.4l42.1,112.3h1.4L420.2,487c0.8-2.1,1.9-3.6,3.2-4.5c1.4-0.9,2.9-1.3,4.5-1.3h0.8v-3.3  h-21.1V481.2z"></path>	<path class="st0" d="M513,576.4c0,1.1-0.3,2.5-0.8,4.2c-0.5,1.6-1.3,3.2-2.4,4.6c-1.1,1.4-2.4,2.7-4,3.7s-3.4,1.5-5.5,1.5h-38.7  v-53h29.1c2.7,0,4.9,0.7,6.5,2.2c1.6,1.4,2.4,3.1,2.4,5v0.8h3.3v-24h-3.3v0.8c0,2.1-0.8,3.8-2.5,5.4c-1.7,1.6-3.8,2.3-6.4,2.3  h-29.1v-44H497c3.8,0,6.7,1,8.4,2.9c1.8,2,2.8,4.3,3,6.8l0.1,0.7h3.2v-18.2H441v3.3h1.7c0.8,0,1.4,0.3,2,0.8  c0.7,0.6,1.2,1.4,1.7,2.2c0.5,0.9,0.9,1.9,1.2,2.9c0.3,1,0.4,1.9,0.4,2.7v96.3c0,0.9-0.1,1.8-0.4,2.9c-0.3,1-0.7,2-1.2,2.9  s-1.1,1.6-1.7,2.2c-0.6,0.5-1.2,0.8-2,0.8H441v3.3h75.3v-22.6H513V576.4z"></path>	<path class="st0" d="M606.1,481.2h1.7c0.8,0,1.4,0.3,2,0.8c0.7,0.6,1.2,1.4,1.7,2.2c0.5,0.9,0.9,1.9,1.2,2.9s0.4,1.9,0.4,2.7V579  l-64.2-101.1h-19.3v3.3h1.7c1,0,1.9,0.3,2.6,0.8c0.7,0.6,1.3,1.3,1.8,2.2c0.4,0.9,0.8,1.9,0.9,2.9c0.2,1,0.3,2,0.3,2.8v95.9  c0,0.9-0.1,1.9-0.4,3c-0.3,1.1-0.7,2.1-1.1,3c-0.4,0.9-1,1.6-1.7,2.3c-0.6,0.6-1.3,0.9-1.9,0.9H530v3.3h21.5V595h-1.6  c-0.8,0-1.4-0.3-2-0.9c-0.7-0.7-1.3-1.5-1.8-2.4s-0.9-1.9-1.1-2.9c-0.2-1.1-0.3-2.1-0.3-3v-89l63.8,101.1l0.2,0.3H621V489.8  c0-0.8,0.1-1.7,0.3-2.7s0.6-2,1.1-2.9s1.1-1.6,1.7-2.2c0.6-0.5,1.2-0.8,2-0.8h1.7v-3.3h-21.7L606.1,481.2L606.1,481.2z"></path></g></svg>